<svg width="1920" height="1080" viewBox="0 0 1920 1080" fill="none" xmlns="http://www.w3.org/2000/svg">
<mask id="mask0_638_816" style="mask-type:alpha" maskUnits="userSpaceOnUse" x="0" y="0" width="1920" height="1080">
<rect width="1920" height="1080" fill="#0D1117"/>
</mask>
<g mask="url(#mask0_638_816)">
<rect width="1920" height="1080" fill="#0D1117"/>
<path fill-rule="evenodd" clip-rule="evenodd" d="M960.621 -210C545.547 -210 210 133.749 210 559.012C210 898.949 424.996 1186.7 723.253 1288.54C760.543 1296.2 774.202 1271.99 774.202 1251.63C774.202 1233.81 772.973 1172.7 772.973 1109.03C564.169 1154.87 520.687 1017.35 520.687 1017.35C487.131 928.23 437.411 905.323 437.411 905.323C369.069 858.214 442.389 858.214 442.389 858.214C518.198 863.308 557.977 937.151 557.977 937.151C625.074 1054.28 733.194 1021.18 776.691 1000.81C782.899 951.151 802.796 916.777 823.922 897.683C657.385 879.855 482.168 813.652 482.168 518.263C482.168 434.232 511.975 365.482 559.206 312.013C551.754 292.92 525.65 213.967 566.673 108.296C566.673 108.296 630.052 87.9206 772.958 187.233C834.141 170.399 897.238 161.836 960.621 161.764C1024 161.764 1088.61 170.686 1148.27 187.233C1291.19 87.9206 1354.57 108.296 1354.57 108.296C1395.59 213.967 1369.47 292.92 1362.02 312.013C1410.5 365.482 1439.07 434.232 1439.07 518.263C1439.07 813.652 1263.86 878.574 1096.07 897.683C1123.42 921.87 1147.02 967.698 1147.02 1040.28C1147.02 1143.4 1145.79 1226.17 1145.79 1251.62C1145.79 1271.99 1159.47 1296.2 1196.74 1288.56C1495 1186.68 1710 898.949 1710 559.012C1711.23 133.749 1374.45 -210 960.621 -210Z" fill="white" fill-opacity="0.05"/>
<rect x="12.5" y="12.5" width="1895" height="1055" stroke="#AD253B" stroke-width="25"/>
<rect x="1727.5" y="7.5" width="185" height="185" stroke="#AD253B" stroke-width="15"/>
<rect x="7.5" y="7.5" width="185" height="185" stroke="#AD253B" stroke-width="15"/>
<mask id="path-7-inside-1_638_816" fill="white">
<path d="M100 100H300V300H100V100Z"/>
</mask>
<path d="M100 100V85H85V100H100ZM100 115H300V85H100V115ZM115 300V100H85V300H115Z" fill="#AD253B" mask="url(#path-7-inside-1_638_816)"/>
<mask id="path-9-inside-2_638_816" fill="white">
<path d="M100 780H300V980H100V780Z"/>
</mask>
<path d="M100 980H85V995H100V980ZM300 965H100V995H300V965ZM115 980V780H85V980H115Z" fill="#AD253B" mask="url(#path-9-inside-2_638_816)"/>
<mask id="path-11-inside-3_638_816" fill="white">
<path d="M1620 780H1820V980H1620V780Z"/>
</mask>
<path d="M1820 980V995H1835V980H1820ZM1805 780V980H1835V780H1805ZM1820 965H1620V995H1820V965Z" fill="#AD253B" mask="url(#path-11-inside-3_638_816)"/>
<mask id="path-13-inside-4_638_816" fill="white">
<path d="M1620 100H1820V300H1620V100Z"/>
</mask>
<path d="M1820 100H1835V85H1820V100ZM1620 115H1820V85H1620V115ZM1805 100V300H1835V100H1805Z" fill="#AD253B" mask="url(#path-13-inside-4_638_816)"/>
<rect x="1727.5" y="887.5" width="185" height="185" stroke="#AD253B" stroke-width="15"/>
<rect x="7.5" y="887.5" width="185" height="185" stroke="#AD253B" stroke-width="15"/>
<path d="M368.136 516.896C367.624 520.992 367.368 527.563 367.368 536.608C367.368 547.189 367.624 554.955 368.136 559.904C368.819 568.608 371.72 575.776 376.84 581.408C381.96 586.869 389.811 589.6 400.392 589.6C410.12 589.6 417.885 587.381 423.688 582.944C429.661 578.336 432.648 571.168 432.648 561.44H411.144C409.267 561.44 407.645 560.757 406.28 559.392C404.915 558.027 404.232 556.405 404.232 554.528V527.392C404.232 525.515 404.915 523.893 406.28 522.528C407.645 521.163 409.267 520.48 411.144 520.48H473.096C474.973 520.48 476.595 521.163 477.96 522.528C479.325 523.893 480.008 525.515 480.008 527.392V560.16C480.008 574.325 476.509 586.784 469.512 597.536C462.515 608.117 452.957 616.309 440.84 622.112C428.893 627.744 415.411 630.56 400.392 630.56C384.52 630.56 370.696 627.488 358.92 621.344C347.144 615.029 338.013 606.667 331.528 596.256C325.043 585.675 321.459 573.984 320.776 561.184C320.435 552.992 320.264 546.251 320.264 540.96C320.264 534.645 320.435 526.197 320.776 515.616C321.288 502.816 324.787 491.211 331.272 480.8C337.757 470.219 346.888 461.856 358.664 455.712C370.611 449.397 384.52 446.24 400.392 446.24C415.581 446.24 428.979 449.056 440.584 454.688C452.36 460.32 461.491 467.403 467.976 475.936C474.632 484.469 478.216 492.747 478.728 500.768C478.899 502.304 478.387 503.669 477.192 504.864C475.997 505.888 474.632 506.4 473.096 506.4H439.048C436.829 506.4 435.037 505.888 433.672 504.864C432.477 503.669 430.856 501.877 428.808 499.488C425.736 495.733 422.067 492.747 417.8 490.528C413.704 488.309 407.901 487.2 400.392 487.2C381.107 487.2 370.355 497.099 368.136 516.896ZM582.904 446.24C599.117 446.24 613.112 449.312 624.888 455.456C636.664 461.6 645.709 469.963 652.024 480.544C658.509 490.955 662.093 502.645 662.776 515.616C663.117 520.395 663.288 528.075 663.288 538.656C663.288 549.067 663.117 556.576 662.776 561.184C662.093 574.155 658.509 585.931 652.024 596.512C645.709 606.923 636.664 615.2 624.888 621.344C613.112 627.488 599.117 630.56 582.904 630.56C566.691 630.56 552.696 627.488 540.92 621.344C529.144 615.2 520.013 606.923 513.528 596.512C507.213 585.931 503.715 574.155 503.032 561.184C502.691 551.968 502.52 544.459 502.52 538.656C502.52 532.853 502.691 525.173 503.032 515.616C503.715 502.645 507.213 490.955 513.528 480.544C520.013 469.963 529.144 461.6 540.92 455.456C552.696 449.312 566.691 446.24 582.904 446.24ZM615.416 516.896C614.563 507.851 611.405 500.683 605.944 495.392C600.653 489.931 592.973 487.2 582.904 487.2C572.835 487.2 565.069 489.931 559.608 495.392C554.317 500.683 551.245 507.851 550.392 516.896C549.88 522.528 549.624 529.611 549.624 538.144C549.624 546.507 549.88 553.76 550.392 559.904C551.245 568.949 554.317 576.203 559.608 581.664C565.069 586.955 572.835 589.6 582.904 589.6C592.973 589.6 600.653 586.955 605.944 581.664C611.405 576.203 614.563 568.949 615.416 559.904C615.928 553.76 616.184 546.507 616.184 538.144C616.184 529.611 615.928 522.528 615.416 516.896ZM766.654 446.24C782.867 446.24 796.862 449.312 808.638 455.456C820.414 461.6 829.459 469.963 835.774 480.544C842.259 490.955 845.843 502.645 846.526 515.616C846.867 520.395 847.038 528.075 847.038 538.656C847.038 549.067 846.867 556.576 846.526 561.184C845.843 574.155 842.259 585.931 835.774 596.512C829.459 606.923 820.414 615.2 808.638 621.344C796.862 627.488 782.867 630.56 766.654 630.56C750.441 630.56 736.446 627.488 724.67 621.344C712.894 615.2 703.763 606.923 697.278 596.512C690.963 585.931 687.465 574.155 686.782 561.184C686.441 551.968 686.27 544.459 686.27 538.656C686.27 532.853 686.441 525.173 686.782 515.616C687.465 502.645 690.963 490.955 697.278 480.544C703.763 469.963 712.894 461.6 724.67 455.456C736.446 449.312 750.441 446.24 766.654 446.24ZM799.166 516.896C798.313 507.851 795.155 500.683 789.694 495.392C784.403 489.931 776.723 487.2 766.654 487.2C756.585 487.2 748.819 489.931 743.358 495.392C738.067 500.683 734.995 507.851 734.142 516.896C733.63 522.528 733.374 529.611 733.374 538.144C733.374 546.507 733.63 553.76 734.142 559.904C734.995 568.949 738.067 576.203 743.358 581.664C748.819 586.955 756.585 589.6 766.654 589.6C776.723 589.6 784.403 586.955 789.694 581.664C795.155 576.203 798.313 568.949 799.166 559.904C799.678 553.76 799.934 546.507 799.934 538.144C799.934 529.611 799.678 522.528 799.166 516.896ZM1032.07 520.224C1032.41 529.781 1032.58 535.925 1032.58 538.656C1032.58 541.387 1032.41 547.36 1032.07 556.576C1031.56 570.571 1027.89 582.944 1021.06 593.696C1014.4 604.448 1005.19 612.896 993.412 619.04C981.636 625.013 967.983 628 952.452 628H883.332C881.455 628 879.833 627.317 878.468 625.952C877.103 624.587 876.42 622.965 876.42 621.088V455.712C876.42 453.835 877.103 452.213 878.468 450.848C879.833 449.483 881.455 448.8 883.332 448.8H951.172C966.703 448.8 980.441 451.872 992.388 458.016C1004.51 463.989 1013.98 472.437 1020.8 483.36C1027.8 494.112 1031.56 506.4 1032.07 520.224ZM923.78 489.76V587.04H951.172C972.676 587.04 983.855 577.227 984.708 557.6C985.049 547.701 985.22 541.216 985.22 538.144C985.22 534.731 985.049 528.416 984.708 519.2C984.196 509.472 980.953 502.133 974.98 497.184C969.177 492.235 960.815 489.76 949.892 489.76H923.78ZM1237.82 448.8C1239.7 448.8 1241.32 449.483 1242.69 450.848C1244.05 452.213 1244.74 453.835 1244.74 455.712V482.848C1244.74 484.725 1244.05 486.347 1242.69 487.712C1241.32 489.077 1239.7 489.76 1237.82 489.76H1161.28V524.832H1232.7C1234.58 524.832 1236.2 525.515 1237.57 526.88C1238.93 528.245 1239.62 529.867 1239.62 531.744V558.88C1239.62 560.757 1238.93 562.379 1237.57 563.744C1236.2 565.109 1234.58 565.792 1232.7 565.792H1161.28V621.088C1161.28 622.965 1160.6 624.587 1159.23 625.952C1157.87 627.317 1156.25 628 1154.37 628H1120.83C1118.95 628 1117.33 627.317 1115.97 625.952C1114.6 624.587 1113.92 622.965 1113.92 621.088V455.712C1113.92 453.835 1114.6 452.213 1115.97 450.848C1117.33 449.483 1118.95 448.8 1120.83 448.8H1237.82ZM1336.65 446.24C1352.87 446.24 1366.86 449.312 1378.64 455.456C1390.41 461.6 1399.46 469.963 1405.77 480.544C1412.26 490.955 1415.84 502.645 1416.53 515.616C1416.87 520.395 1417.04 528.075 1417.04 538.656C1417.04 549.067 1416.87 556.576 1416.53 561.184C1415.84 574.155 1412.26 585.931 1405.77 596.512C1399.46 606.923 1390.41 615.2 1378.64 621.344C1366.86 627.488 1352.87 630.56 1336.65 630.56C1320.44 630.56 1306.45 627.488 1294.67 621.344C1282.89 615.2 1273.76 606.923 1267.28 596.512C1260.96 585.931 1257.46 574.155 1256.78 561.184C1256.44 551.968 1256.27 544.459 1256.27 538.656C1256.27 532.853 1256.44 525.173 1256.78 515.616C1257.46 502.645 1260.96 490.955 1267.28 480.544C1273.76 469.963 1282.89 461.6 1294.67 455.456C1306.45 449.312 1320.44 446.24 1336.65 446.24ZM1369.17 516.896C1368.31 507.851 1365.16 500.683 1359.69 495.392C1354.4 489.931 1346.72 487.2 1336.65 487.2C1326.58 487.2 1318.82 489.931 1313.36 495.392C1308.07 500.683 1305 507.851 1304.14 516.896C1303.63 522.528 1303.37 529.611 1303.37 538.144C1303.37 546.507 1303.63 553.76 1304.14 559.904C1305 568.949 1308.07 576.203 1313.36 581.664C1318.82 586.955 1326.58 589.6 1336.65 589.6C1346.72 589.6 1354.4 586.955 1359.69 581.664C1365.16 576.203 1368.31 568.949 1369.17 559.904C1369.68 553.76 1369.93 546.507 1369.93 538.144C1369.93 529.611 1369.68 522.528 1369.17 516.896ZM1486.36 622.112C1484.99 624.16 1483.63 625.696 1482.26 626.72C1480.89 627.573 1478.76 628 1475.86 628H1436.95C1435.41 628 1434.05 627.488 1432.85 626.464C1431.83 625.269 1431.32 623.904 1431.32 622.368C1431.32 621.344 1431.57 620.405 1432.08 619.552L1491.22 536.864L1434.64 457.248C1434.13 456.224 1433.88 455.285 1433.88 454.432C1433.88 452.896 1434.39 451.616 1435.41 450.592C1436.61 449.397 1437.97 448.8 1439.51 448.8H1478.16C1481.07 448.8 1483.2 449.397 1484.56 450.592C1486.1 451.787 1487.55 453.323 1488.92 455.2L1519.89 498.464L1549.84 455.2C1551.21 453.323 1552.57 451.787 1553.94 450.592C1555.48 449.397 1557.69 448.8 1560.6 448.8H1599.76C1601.3 448.8 1602.58 449.397 1603.6 450.592C1604.8 451.616 1605.4 452.896 1605.4 454.432C1605.4 455.285 1605.14 456.224 1604.63 457.248L1547.8 537.888L1606.42 619.552C1606.93 620.405 1607.19 621.344 1607.19 622.368C1607.19 623.904 1606.59 625.269 1605.4 626.464C1604.37 627.488 1603.09 628 1601.56 628H1562.64C1559.74 628 1557.61 627.573 1556.24 626.72C1554.88 625.696 1553.51 624.16 1552.15 622.112L1519.12 576.032L1486.36 622.112Z" fill="#AD253B"/>
</g>
</svg>
